<svg width="125" height="125" viewBox="0 0 125 125" fill="none" xmlns="http://www.w3.org/2000/svg">
<circle cx="62.5" cy="62.5" r="62.5" fill="#B698FF"/>
<path d="M76.0556 66.8331H47.9444C45.5722 66.8331 43.2972 67.632 41.6198 69.0542C39.9424 70.4763 39 72.4052 39 74.4164C39 76.4276 39.9424 78.3564 41.6198 79.7785C43.2972 81.2007 45.5722 81.9996 47.9444 81.9996H76.0556C78.4278 81.9996 80.7028 81.2007 82.3802 79.7785C84.0576 78.3564 85 76.4276 85 74.4164C85 72.4052 84.0576 70.4763 82.3802 69.0542C80.7028 67.632 78.4278 66.8331 76.0556 66.8331ZM39 50.5833C39 51.5791 39.2314 52.5652 39.6809 53.4852C40.1304 54.4053 40.7892 55.2413 41.6198 55.9454C42.4503 56.6496 43.4364 57.2082 44.5216 57.5893C45.6067 57.9704 46.7698 58.1665 47.9444 58.1665C49.119 58.1665 50.2821 57.9704 51.3673 57.5893C52.4525 57.2082 53.4386 56.6496 54.2691 55.9454C55.0997 55.2413 55.7585 54.4053 56.208 53.4852C56.6575 52.5652 56.8889 51.5791 56.8889 50.5833C56.8889 48.5721 55.9465 46.6432 54.2691 45.2211C52.5917 43.7989 50.3167 43 47.9444 43C45.5722 43 43.2972 43.7989 41.6198 45.2211C39.9424 46.6432 39 48.5721 39 50.5833Z" fill="white"/>
<path d="M47.9444 43H76.0556C77.2302 43 78.3933 43.1961 79.4784 43.5772C80.5636 43.9583 81.5497 44.5169 82.3802 45.2211C83.2108 45.9253 83.8696 46.7612 84.3191 47.6813C84.7686 48.6013 85 49.5874 85 50.5833C85 51.5791 84.7686 52.5652 84.3191 53.4852C83.8696 54.4053 83.2108 55.2413 82.3802 55.9454C81.5497 56.6496 80.5636 57.2082 79.4784 57.5893C78.3933 57.9704 77.2302 58.1665 76.0556 58.1665H47.9444C46.7698 58.1665 45.6067 57.9704 44.5216 57.5893C43.4364 57.2082 42.4503 56.6496 41.6198 55.9454C40.7892 55.2413 40.1304 54.4053 39.6809 53.4852C39.2314 52.5652 39 51.5791 39 50.5833C39 49.5874 39.2314 48.6013 39.6809 47.6813C40.1304 46.7612 40.7892 45.9253 41.6198 45.2211C42.4503 44.5169 43.4364 43.9583 44.5216 43.5772C45.6067 43.1961 46.7698 43 47.9444 43Z" fill="white"/>
<path d="M85 74.4168C85 76.428 84.0576 78.3568 82.3802 79.7789C80.7028 81.2011 78.4278 82 76.0556 82C73.6833 82 71.4083 81.2011 69.7309 79.7789C68.0535 78.3568 67.1111 76.428 67.1111 74.4168C67.1111 72.4056 68.0535 70.4767 69.7309 69.0546C71.4083 67.6324 73.6833 66.8335 76.0556 66.8335C78.4278 66.8335 80.7028 67.6324 82.3802 69.0546C84.0576 70.4767 85 72.4056 85 74.4168Z" fill="#7140EB"/>
</svg>
