<svg width="92" height="92" viewBox="0 0 92 92" fill="none" xmlns="http://www.w3.org/2000/svg">
<path d="M53.8423 0.689923C57.2872 1.03929 59.7967 4.1153 59.4472 7.56027C59.1753 10.2398 60.6752 12.7491 62.9749 14.151C63.2074 14.2927 63.4382 14.4369 63.6673 14.5836C65.9885 16.0698 68.9519 16.3736 71.3389 14.9958C74.4893 13.1774 78.5173 14.2568 80.3361 17.407L84.015 23.7787C85.4181 26.2088 84.5854 29.3163 82.1552 30.7192C80.0077 31.9589 79.1073 34.561 79.6957 36.9698C80.385 39.7917 80.7509 42.7405 80.7509 45.7747C80.7509 47.76 81.7063 49.6591 83.4256 50.6518L86.0918 52.1912C90.8488 54.9378 92.4786 61.0206 89.7322 65.7776L87.8664 69.0093C85.9203 72.3801 81.6102 73.535 78.2394 71.589C75.1958 69.8318 71.3677 70.646 68.7804 73.0243C65.1843 76.3298 60.9322 78.9324 56.2415 80.615C53.7041 81.5251 51.7269 83.6826 51.4551 86.3645C51.1061 89.8081 48.0315 92.3167 44.5879 91.9675L38.0341 91.3029C35.2424 91.0198 33.2088 88.5273 33.4916 85.7356C33.7417 83.2679 32.1564 81.0155 29.8576 80.0843C25.476 78.3095 21.5117 75.7204 18.1527 72.5038C16.3607 70.7878 13.6552 70.2676 11.5066 71.5083C9.07379 72.9131 5.9628 72.0797 4.55818 69.6468L0.883339 63.2817C-0.936202 60.1302 0.14345 56.1003 3.29487 54.2805C5.67914 52.9037 6.89863 50.1901 6.7755 47.4396C6.75079 46.8877 6.73826 46.3326 6.73825 45.7747C6.73825 42.4108 7.18814 39.1519 8.02984 36.0544C8.69437 33.609 7.80864 30.9252 5.61401 29.6581C3.18548 28.256 2.35339 25.1507 3.75549 22.7221L7.73161 15.8352C9.85651 12.1547 14.5627 10.8937 18.2432 13.0185C20.8369 14.516 24.0326 14.3073 26.6895 12.9252C29.8886 11.2612 33.3613 10.0511 37.0225 9.37954C39.4647 8.93157 41.4726 7.04172 41.7231 4.57147C42.0066 1.7777 44.5011 -0.257386 47.2948 0.0259368L53.8423 0.689923Z" fill="#FFA67B"/>
</svg>
