<svg width="28" height="28" viewBox="0 0 28 28" fill="none" xmlns="http://www.w3.org/2000/svg">
<rect width="28" height="28" rx="14" fill="url(#paint0_linear_6252_3202)"/>
<path d="M14.0027 7.11423C16.2472 7.11423 16.5107 7.12424 17.3978 7.16426C18.2182 7.20094 18.6618 7.33768 18.9586 7.45441C19.3522 7.60783 19.6323 7.78792 19.9258 8.08141C20.2193 8.3749 20.4027 8.65505 20.5528 9.04859C20.6662 9.34541 20.8063 9.78898 20.843 10.6094C20.883 11.4966 20.893 11.76 20.893 14.0045C20.893 16.2491 20.883 16.5125 20.843 17.3997C20.8063 18.2201 20.6695 18.6637 20.5528 18.9605C20.3994 19.354 20.2193 19.6342 19.9258 19.9277C19.6323 20.2212 19.3522 20.4046 18.9586 20.5547C18.6618 20.6681 18.2182 20.8081 17.3978 20.8448C16.5107 20.8849 16.2472 20.8949 14.0027 20.8949C11.7582 20.8949 11.4947 20.8849 10.6075 20.8448C9.78711 20.8081 9.34354 20.6714 9.04672 20.5547C8.65318 20.4013 8.37303 20.2212 8.07954 19.9277C7.78605 19.6342 7.60262 19.354 7.45254 18.9605C7.33915 18.6637 7.19908 18.2201 7.16239 17.3997C7.12237 16.5125 7.11236 16.2491 7.11236 14.0045C7.11236 11.76 7.12237 11.4966 7.16239 10.6094C7.19908 9.78898 7.33581 9.34541 7.45254 9.04859C7.60596 8.65505 7.78605 8.3749 8.07954 8.08141C8.37303 7.78792 8.65318 7.60449 9.04672 7.45441C9.34354 7.34102 9.78711 7.20094 10.6075 7.16426C11.4947 7.1209 11.7615 7.11423 14.0027 7.11423ZM14.0027 5.6001C11.7215 5.6001 11.4347 5.6101 10.5375 5.65012C9.6437 5.69015 9.03338 5.83355 8.49976 6.04033C7.94614 6.25378 7.47922 6.54393 7.01231 7.01084C6.5454 7.47776 6.25858 7.94801 6.0418 8.4983C5.83502 9.03191 5.69161 9.64224 5.65159 10.5394C5.61157 11.4332 5.60156 11.72 5.60156 14.0012C5.60156 16.2824 5.61157 16.5692 5.65159 17.4664C5.69161 18.3602 5.83502 18.9705 6.0418 19.5075C6.25524 20.0611 6.5454 20.528 7.01231 20.9949C7.47922 21.4618 7.94947 21.7486 8.49976 21.9654C9.03338 22.1722 9.6437 22.3156 10.5408 22.3556C11.438 22.3957 11.7215 22.4057 14.006 22.4057C16.2906 22.4057 16.574 22.3957 17.4712 22.3556C18.365 22.3156 18.9753 22.1722 19.5123 21.9654C20.0659 21.752 20.5328 21.4618 20.9997 20.9949C21.4666 20.528 21.7535 20.0577 21.9702 19.5075C22.177 18.9738 22.3204 18.3635 22.3604 17.4664C22.4005 16.5692 22.4105 16.2858 22.4105 14.0012C22.4105 11.7167 22.4005 11.4332 22.3604 10.536C22.3204 9.64224 22.177 9.03191 21.9702 8.49496C21.7568 7.94134 21.4666 7.47442 20.9997 7.00751C20.5328 6.5406 20.0626 6.25378 19.5123 6.037C18.9786 5.83022 18.3683 5.68681 17.4712 5.64679C16.5707 5.6101 16.2839 5.6001 14.0027 5.6001Z" fill="white"/>
<path d="M14.0021 9.68896C11.6209 9.68896 9.68652 11.62 9.68652 14.0046C9.68652 16.3892 11.6175 18.3202 14.0021 18.3202C16.3867 18.3202 18.3178 16.3892 18.3178 14.0046C18.3178 11.62 16.3867 9.68896 14.0021 9.68896ZM14.0021 16.8027C12.4547 16.8027 11.2007 15.5487 11.2007 14.0012C11.2007 12.4538 12.4547 11.1998 14.0021 11.1998C15.5496 11.1998 16.8036 12.4538 16.8036 14.0012C16.8036 15.5487 15.5496 16.8027 14.0021 16.8027Z" fill="white"/>
<path d="M18.4877 10.5227C19.0439 10.5227 19.4949 10.0718 19.4949 9.5155C19.4949 8.95924 19.0439 8.5083 18.4877 8.5083C17.9314 8.5083 17.4805 8.95924 17.4805 9.5155C17.4805 10.0718 17.9314 10.5227 18.4877 10.5227Z" fill="white"/>
<defs>
<linearGradient id="paint0_linear_6252_3202" x1="14" y1="0" x2="14" y2="28" gradientUnits="userSpaceOnUse">
<stop stop-color="#F2CE7E"/>
<stop offset="0.322115" stop-color="#DA503D"/>
<stop offset="0.706731" stop-color="#AD3186"/>
<stop offset="1" stop-color="#49539F"/>
</linearGradient>
</defs>
</svg>
