<svg width="122" height="122" viewBox="0 0 122 122" fill="none" xmlns="http://www.w3.org/2000/svg">
<circle cx="61" cy="61" r="61" fill="#B698FF"/>
<path d="M48.625 37.75C46.0102 37.7492 43.4683 38.6114 41.3937 40.2029C39.319 41.7944 37.8277 44.0261 37.151 46.5518C36.4743 49.0775 36.6501 51.7559 37.6512 54.1714C38.6523 56.5869 40.4226 58.6045 42.6875 59.9111V75.3771C42.6875 77.3199 42.6875 78.2889 43.0485 79.1629C43.4095 80.0345 44.0983 80.7209 45.471 82.096L48.625 85.25L53.6315 80.2435C53.8619 80.0131 53.9783 79.8968 54.0732 79.7709C54.3249 79.4421 54.4862 79.0532 54.5411 78.6427C54.5625 78.486 54.5625 78.3221 54.5625 77.9967C54.5625 77.7331 54.5625 77.6001 54.5483 77.4719C54.5113 77.1354 54.4027 76.8106 54.23 76.5195C54.1366 76.3715 54.0351 76.2288 53.926 76.092L51 72.1875L52.6625 69.9716C53.603 68.7153 54.0756 68.0882 54.3179 67.3567C54.5625 66.6252 54.5625 65.8415 54.5625 64.2693V59.9111C56.8274 58.6045 58.5977 56.5869 59.5988 54.1714C60.5999 51.7559 60.7757 49.0775 60.099 46.5518C59.4223 44.0261 57.931 41.7944 55.8563 40.2029C53.7817 38.6114 51.2398 37.7492 48.625 37.75ZM48.625 49.625H48.6464H48.625ZM62.875 66.25H77.125C79.3385 66.25 80.4452 66.25 81.3169 66.611C81.8936 66.8497 82.4176 67.1998 82.8589 67.6411C83.3002 68.0824 83.6503 68.6064 83.889 69.1831C84.25 70.0547 84.25 71.1615 84.25 73.375C84.25 75.5885 84.25 76.6952 83.889 77.5669C83.6503 78.1436 83.3002 78.6676 82.8589 79.1089C82.4176 79.5502 81.8936 79.9003 81.3169 80.139C80.4452 80.5 79.3385 80.5 77.125 80.5H62.875M67.625 44.875H77.125C79.3385 44.875 80.4452 44.875 81.3169 45.236C81.8936 45.4747 82.4176 45.8248 82.8589 46.2661C83.3002 46.7074 83.6503 47.2314 83.889 47.8081C84.25 48.6798 84.25 49.7865 84.25 52C84.25 54.2135 84.25 55.3203 83.889 56.1919C83.6503 56.7686 83.3002 57.2926 82.8589 57.7339C82.4176 58.1752 81.8936 58.5253 81.3169 58.764C80.4452 59.125 79.3385 59.125 77.125 59.125H67.625" fill="white"/>
</svg>
