<svg width="122" height="122" viewBox="0 0 122 122" fill="none" xmlns="http://www.w3.org/2000/svg">
<circle cx="61" cy="61" r="61" fill="#B698FF"/>
<path fill-rule="evenodd" clip-rule="evenodd" d="M60.3268 36.7363C63.1545 36.7363 65.8137 37.4932 68.1024 38.8202C68.4121 38.9822 68.6859 39.2052 68.9072 39.4758C69.1285 39.7464 69.2928 40.0589 69.3902 40.3946C69.4876 40.7304 69.5161 41.0823 69.4739 41.4293C69.4318 41.7763 69.3199 42.1112 69.1449 42.4139C68.97 42.7165 68.7356 42.9806 68.456 43.1904C68.1763 43.4001 67.8571 43.5511 67.5176 43.6342C67.1781 43.7174 66.8252 43.731 66.4803 43.6743C66.1354 43.6176 65.8055 43.4916 65.5105 43.3041C63.9341 42.394 62.1458 41.9149 60.3255 41.9151C58.5053 41.9153 56.7171 42.3948 55.1409 43.3053C53.5647 44.2159 52.256 45.5253 51.3464 47.1021C50.4369 48.6788 49.9585 50.4672 49.9593 52.2875L78.4698 52.2901C79.8446 52.2901 81.1631 52.8362 82.1353 53.8084C83.1074 54.7805 83.6535 56.099 83.6535 57.4738V83.3925C83.6535 84.7673 83.1074 86.0858 82.1353 87.0579C81.1631 88.03 79.8446 88.5762 78.4698 88.5762H42.1837C40.8089 88.5762 39.4904 88.03 38.5183 87.0579C37.5461 86.0858 37 84.7673 37 83.3925V57.4712C37 56.0964 37.5461 54.7779 38.5183 53.8058C39.4904 52.8336 40.8089 52.2875 42.1837 52.2875H44.7756C44.7756 48.1631 46.414 44.2076 49.3304 41.2912C52.2468 38.3748 56.2023 36.7363 60.3268 36.7363ZM60.3268 62.655C59.1857 62.655 58.0765 63.0316 57.1713 63.7262C56.266 64.4209 55.6152 65.3948 55.3199 66.497C55.0246 67.5992 55.1012 68.7681 55.5378 69.8223C55.9744 70.8765 56.7467 71.7572 57.7349 72.3278V75.6143C57.7349 76.3017 58.008 76.9609 58.494 77.447C58.9801 77.9331 59.6394 78.2061 60.3268 78.2061C61.0142 78.2061 61.6734 77.9331 62.1595 77.447C62.6456 76.9609 62.9186 76.3017 62.9186 75.6143V72.3278C63.9068 71.7572 64.6791 70.8765 65.1157 69.8223C65.5524 68.7681 65.629 67.5992 65.3336 66.497C65.0383 65.3948 64.3875 64.4209 63.4823 63.7262C62.577 63.0316 61.4678 62.655 60.3268 62.655ZM80.8491 44.5663L83.3529 45.2402C83.9913 45.4401 84.5277 45.879 84.8499 46.4652C85.1721 47.0514 85.2552 47.7395 85.0818 48.3856C84.9084 49.0317 84.4919 49.5857 83.9195 49.9318C83.347 50.2778 82.663 50.3892 82.0103 50.2425L79.5091 49.5738C78.848 49.3936 78.2851 48.9588 77.9436 48.3646C77.6021 47.7705 77.5099 47.0652 77.6871 46.4032C77.8642 45.7412 78.2963 45.1763 78.8889 44.832C79.4815 44.4878 80.1863 44.3923 80.8491 44.5663ZM77.5186 36.9696C77.8474 37.0577 78.1557 37.2097 78.4257 37.417C78.6958 37.6243 78.9223 37.8827 79.0925 38.1775C79.2627 38.4724 79.3731 38.7978 79.4174 39.1354C79.4618 39.4729 79.4392 39.8158 79.351 40.1446L79.0167 41.3939C78.93 41.7241 78.7789 42.0339 78.5721 42.3055C78.3653 42.5772 78.1069 42.8053 77.8117 42.9768C77.5165 43.1482 77.1904 43.2597 76.852 43.3048C76.5136 43.3498 76.1696 43.3276 75.8398 43.2394C75.51 43.1511 75.2009 42.9986 74.9303 42.7905C74.6596 42.5825 74.4327 42.323 74.2626 42.027C74.0925 41.731 73.9826 41.4043 73.9391 41.0657C73.8956 40.7271 73.9194 40.3833 74.0092 40.0539L74.3462 38.802C74.5242 38.1385 74.9583 37.5728 75.5531 37.2292C76.148 36.8856 76.8549 36.7923 77.5186 36.9696Z" fill="white"/>
</svg>
