<svg width="28" height="28" viewBox="0 0 28 28" fill="none" xmlns="http://www.w3.org/2000/svg">
<rect width="28" height="28" rx="14" fill="#FFFC00"/>
<path d="M21.302 18.4725C18.5682 17.1491 18.1325 15.1059 18.1131 14.9543C18.0897 14.7707 18.0631 14.6264 18.2656 14.4397C18.4609 14.2592 19.3274 13.7229 19.5678 13.5552C19.9651 13.2773 20.1401 12.9999 20.0111 12.6589C19.9209 12.423 19.7013 12.3342 19.4699 12.3342C19.3969 12.3344 19.3242 12.3426 19.2529 12.3585C18.8163 12.4532 18.3923 12.672 18.147 12.7311C18.1175 12.7387 18.0872 12.7428 18.0568 12.7433C17.926 12.7433 17.8763 12.6851 17.889 12.5277C17.9196 12.0505 17.9846 11.119 17.9093 10.249C17.806 9.05189 17.4199 8.45876 16.9621 7.93419C16.7406 7.6798 15.7122 6.58691 13.7276 6.58691C11.743 6.58691 10.716 7.6798 10.4958 7.93104C10.0367 8.45561 9.65103 9.04873 9.54864 10.2458C9.47331 11.1159 9.54097 12.0469 9.56894 12.5245C9.57796 12.6743 9.53195 12.7401 9.40115 12.7401C9.3707 12.7396 9.34043 12.7355 9.31094 12.7279C9.06602 12.6688 8.64203 12.4501 8.20542 12.3554C8.1342 12.3394 8.06145 12.3312 7.98846 12.331C7.75617 12.331 7.53742 12.4212 7.44721 12.6558C7.31821 12.9968 7.49231 13.2742 7.89104 13.552C8.13145 13.7198 8.99791 14.2556 9.19321 14.4365C9.39528 14.6232 9.36912 14.7676 9.34567 14.9511C9.32627 15.105 8.89011 17.1482 6.15676 18.4693C5.99664 18.5469 5.7242 18.7111 6.20457 18.9763C6.95872 19.3931 7.46074 19.3484 7.85089 19.5996C8.18196 19.813 7.98621 20.2731 8.22707 20.439C8.52296 20.6434 9.39754 20.4246 10.5274 20.7976C11.4746 21.1098 12.0502 21.9916 13.7299 21.9916C15.4096 21.9916 16.0018 21.1057 16.9323 20.7976C18.0599 20.4246 18.9363 20.6434 19.2326 20.439C19.473 20.2731 19.2777 19.813 19.6088 19.5996C19.999 19.3484 20.5005 19.3931 21.2551 18.9763C21.7346 18.7142 21.4622 18.5501 21.302 18.4725Z" fill="white"/>
<path d="M22.491 18.3169C22.3683 17.9832 22.1347 17.8045 21.8686 17.6566C21.8185 17.6273 21.7725 17.6038 21.7333 17.5858C21.6539 17.5447 21.5727 17.505 21.492 17.4631C20.6625 17.0233 20.0148 16.4685 19.5655 15.8109C19.438 15.6258 19.3273 15.4295 19.2349 15.2246C19.1966 15.1149 19.1984 15.0527 19.2259 14.9959C19.2532 14.9521 19.2893 14.9145 19.3319 14.8854C19.4744 14.7911 19.6215 14.6955 19.7211 14.631C19.8989 14.516 20.0396 14.4248 20.1302 14.3603C20.4708 14.1222 20.7089 13.8692 20.8578 13.5863C20.9616 13.391 21.0222 13.1755 21.0354 12.9546C21.0485 12.7337 21.0139 12.5126 20.934 12.3063C20.7085 11.7127 20.1478 11.3442 19.4686 11.3442C19.3253 11.3441 19.1824 11.3592 19.0423 11.3893C19.0049 11.3974 18.9674 11.406 18.9309 11.4155C18.9372 11.0095 18.9282 10.581 18.8921 10.1593C18.764 8.67669 18.2449 7.89954 17.7036 7.2798C17.357 6.89144 16.9487 6.56289 16.4953 6.30734C15.6739 5.83825 14.7425 5.6001 13.7272 5.6001C12.7119 5.6001 11.785 5.83825 10.9627 6.30734C10.5081 6.56296 10.099 6.89218 9.7521 7.2816C9.21084 7.90134 8.69169 8.67985 8.56359 10.1611C8.5275 10.5828 8.51848 11.0136 8.52435 11.4173C8.48781 11.4078 8.45083 11.3992 8.41339 11.3911C8.27331 11.361 8.13043 11.3459 7.98715 11.346C7.30742 11.346 6.74587 11.7145 6.52124 12.3081C6.44096 12.5145 6.40605 12.7358 6.41889 12.9569C6.43173 13.178 6.49202 13.3938 6.59567 13.5895C6.74496 13.8723 6.98312 14.1253 7.32366 14.3635C7.41387 14.4267 7.55505 14.5178 7.73276 14.6341C7.82883 14.6964 7.96911 14.7875 8.10668 14.8786C8.15481 14.9097 8.19572 14.9508 8.22666 14.999C8.25552 15.0581 8.25642 15.1217 8.21357 15.239C8.12244 15.4397 8.0136 15.6318 7.88837 15.8132C7.44905 16.4559 6.82029 17.0008 6.01742 17.4369C5.59209 17.6625 5.15006 17.8131 4.96333 18.3205C4.8226 18.7035 4.91461 19.1392 5.27229 19.5063C5.40357 19.6434 5.55582 19.7586 5.72334 19.8478C6.07191 20.0393 6.44255 20.1876 6.82705 20.2894C6.9064 20.3098 6.98173 20.3435 7.04987 20.389C7.18022 20.5032 7.16173 20.675 7.33539 20.9267C7.42256 21.0568 7.53332 21.1694 7.66194 21.2587C8.02639 21.5104 8.43594 21.5261 8.86985 21.5428C9.26181 21.5577 9.70609 21.5749 10.2135 21.7422C10.4237 21.8117 10.642 21.9461 10.8951 22.103C11.5026 22.4765 12.3343 22.9875 13.7263 22.9875C15.1182 22.9875 15.9558 22.4738 16.5679 22.099C16.8191 21.9447 17.0361 21.8117 17.2404 21.744C17.7478 21.5762 18.1921 21.5595 18.5841 21.5446C19.018 21.5279 19.4275 21.5122 19.792 21.2605C19.9443 21.1543 20.0712 21.0156 20.1636 20.8545C20.2886 20.6421 20.2854 20.4937 20.4027 20.39C20.4666 20.3466 20.5374 20.3143 20.612 20.2943C21.0017 20.1923 21.3774 20.0426 21.7306 19.8487C21.9085 19.7532 22.0688 19.6278 22.2042 19.4779L22.2087 19.4725C22.5443 19.1135 22.6286 18.6904 22.491 18.3169ZM21.2538 18.9818C20.4992 19.3985 19.9976 19.3539 19.6075 19.6051C19.276 19.8185 19.4722 20.2785 19.2313 20.4445C18.9354 20.6489 18.0608 20.4301 16.931 20.8031C15.9991 21.1112 15.4046 21.997 13.7285 21.997C12.0524 21.997 11.4719 21.113 10.5247 20.8009C9.39712 20.4278 8.52074 20.6466 8.2244 20.4423C7.98399 20.2763 8.1793 19.8162 7.84823 19.6029C7.45762 19.3516 6.95605 19.3963 6.2019 18.9818C5.72154 18.7166 5.99397 18.5524 6.15409 18.4748C8.88744 17.1514 9.3236 15.1082 9.343 14.9566C9.36645 14.7731 9.39261 14.6287 9.19054 14.442C8.99524 14.2616 8.12878 13.7253 7.88837 13.5575C7.49055 13.2796 7.31554 13.0022 7.44454 12.6612C7.53475 12.4254 7.75486 12.3365 7.9858 12.3365C8.05878 12.3367 8.13153 12.3449 8.20275 12.3609C8.63936 12.4556 9.06335 12.6743 9.30827 12.7334C9.33776 12.741 9.36803 12.7451 9.39848 12.7456C9.52928 12.7456 9.57529 12.6797 9.56627 12.53C9.5383 12.0523 9.47064 11.1214 9.54597 10.2513C9.64926 9.05422 10.0349 8.46109 10.4932 7.93652C10.7133 7.68439 11.7475 6.5915 13.7254 6.5915C15.7032 6.5915 16.7402 7.67988 16.9603 7.93111C17.419 8.45568 17.8051 9.04881 17.9075 10.2459C17.9828 11.116 17.9179 12.0474 17.8872 12.5246C17.8768 12.682 17.9242 12.7402 18.055 12.7402C18.0854 12.7397 18.1157 12.7356 18.1452 12.728C18.3906 12.6689 18.8145 12.4502 19.2512 12.3554C19.3224 12.3395 19.3951 12.3313 19.4681 12.3311C19.7004 12.3311 19.9192 12.4213 20.0094 12.6558C20.1384 12.9968 19.9643 13.2742 19.566 13.5521C19.3256 13.7199 18.4591 14.2557 18.2638 14.4366C18.0613 14.6233 18.0879 14.7676 18.1114 14.9512C18.1308 15.105 18.5665 17.1483 21.3003 18.4694C21.4617 18.5501 21.7342 18.7143 21.2538 18.9818Z" fill="black"/>
</svg>
