<svg width="393" height="176" viewBox="0 0 393 176" fill="none" xmlns="http://www.w3.org/2000/svg">
<path d="M-12.869 171.374C-5.43924 170.461 4.07829 168.129 10.9617 165.579C25.2254 160.261 37.1189 152.661 50.4006 140.338C61.4317 130.137 66.8791 125.587 73.0714 121.42C75.4844 119.813 78.5952 118.108 79.8458 117.731C80.6176 117.498 80.7328 117.531 81.5189 118.285C83.4961 120.189 85.2276 122.663 90.8415 131.671C97.3418 142.102 97.9298 142.893 100.93 144.917C107.616 149.456 118.397 150.371 126.126 147.047C128.649 145.97 130.594 144.73 132.183 143.169C134.676 140.727 135.194 139.579 139.375 127.367C145.025 110.813 147.916 105.052 153.937 98.4805C157.238 94.8482 161.254 91.8563 165.766 89.6609C168.312 88.4194 174.518 86.6592 177.209 86.4105C186.25 85.5973 196.117 87.9368 205.396 93.1355C214.361 98.1357 221.51 104.382 233.289 117.501C240.432 125.462 256.387 142.795 258.849 145.274C268.646 155.161 280.309 163.222 291.985 168.261C302.165 172.624 312.192 174.915 323.329 175.385C337.197 175.976 351.516 173.029 365.174 166.79C371.573 163.867 376.425 161.051 385.116 155.161C402.212 143.581 419.086 129.363 433.575 114.31C445.964 101.469 471.663 72.8494 497.27 43.4238C498.767 41.6653 501.26 38.8174 502.807 37.0889L505.581 33.9309L495.296 17.2747L484.984 0.626529L482.914 2.98625C481.772 4.29963 480.323 5.93116 479.717 6.63235C479.11 7.33356 475.774 11.1117 472.323 15.0599C468.859 18.9891 464.449 24.0376 462.533 26.2383C460.602 28.4659 458.037 31.4028 456.813 32.7862C455.588 34.1697 453.829 36.1653 452.938 37.2226C436.787 55.796 413.132 82.0639 399.683 96.3515C386.232 110.685 365.88 127.439 349.77 137.506C341.396 142.737 332.945 145.715 326.249 145.776C320.44 145.839 314.338 143.963 307.806 140.076C300.443 135.719 295.354 131.306 286.577 121.585C284.86 119.693 281.739 116.308 279.691 114.087C277.605 111.855 273.793 107.666 271.189 104.757C258.573 90.6513 252.361 84.64 243.625 78.1288C237.391 73.4533 231.125 69.6889 224.173 66.447C214.055 61.7271 202.488 58.436 191.585 57.1749C183.789 56.283 174.571 56.4061 167.182 57.4867C161.349 58.3233 159.073 58.8301 153.777 60.4282C145.954 62.7892 140.081 65.4401 133.649 69.4765C124.278 75.3913 116.988 82.6159 110.649 92.2798L108.507 95.5397L106.196 94.1644C101.334 91.2831 94.4729 88.8474 88.9034 88.0272C79.3783 86.6432 69.9322 87.6688 60.6982 91.0639C55.166 93.0939 50.9168 95.255 45.3101 98.8396C38.2486 103.336 29.9091 110.044 20.9038 118.372C6.32962 131.918 -1.16372 136.838 -12.009 140.134C-17.6239 141.828 -20.6691 142.319 -27.9479 142.713C-29.6361 142.794 -31.4987 142.951 -32.093 143.063L-33.1603 143.227L-24.2963 157.451L-15.4323 171.674L-12.869 171.374Z" fill="#331400"/>
</svg>
