<svg width="1511" height="939" viewBox="0 0 1511 939" fill="none" xmlns="http://www.w3.org/2000/svg">
<path d="M735.557 140.916C483.689 216.071 137.574 149.91 -3.99947 107.436L-4 938.894C116.959 923.237 434.214 865.838 735.556 761.5C1036.9 657.162 1381.41 771.661 1516 841.952L1516 0C1360.8 15.6573 987.425 65.7607 735.557 140.916Z" fill="#D9D9D9"/>
<path d="M735.557 140.916C483.689 216.071 137.574 149.91 -3.99947 107.436L-4 938.894C116.959 923.237 434.214 865.838 735.556 761.5C1036.9 657.162 1381.41 771.661 1516 841.952L1516 0C1360.8 15.6573 987.425 65.7607 735.557 140.916Z" fill="#FFDCE3"/>
</svg>
