<svg width="504" height="672" viewBox="0 0 504 672" fill="none" xmlns="http://www.w3.org/2000/svg">
<path d="M46.5897 669.036C60.6527 663.065 78.3905 652.567 91.0133 642.855C117.162 622.649 138.212 598.041 160.806 561.158C179.579 530.607 188.966 516.714 199.875 503.386C204.131 498.234 209.704 492.492 212.018 490.938C213.446 489.979 213.675 490.002 215.365 491.456C219.619 495.131 223.536 500.326 236.471 519.589C251.448 541.894 252.767 543.539 259.015 546.993C272.946 554.761 293.886 551.585 307.95 539.552C312.542 535.646 315.986 531.627 318.667 527.002C322.877 519.762 323.599 516.688 328.729 484.648C335.647 441.227 339.831 425.65 349.84 406.514C355.319 395.95 362.326 386.598 370.476 378.948C375.073 374.625 386.583 367.191 391.695 365.23C408.878 358.693 428.401 359.47 447.472 367.553C465.893 375.306 481.121 387.028 506.885 413.269C522.509 429.197 557.303 463.674 562.624 468.514C583.808 487.828 608.144 501.731 631.785 508.216C652.391 513.797 672.209 514.375 693.726 509.93C720.522 504.411 747.341 489.992 772.107 467.832C783.709 457.452 792.365 448.109 807.667 429.303C837.768 392.322 866.816 348.987 891.08 304.805C911.834 267.097 954.414 184.021 996.626 99.0145C999.083 93.9515 1003.2 85.7169 1005.76 80.7019L1010.34 71.5659L986.605 35.9005L962.822 0.268086L959.405 7.09343C957.523 10.8869 955.126 15.615 954.128 17.6387C953.129 19.6624 947.616 30.6013 941.922 42.0149C936.201 53.388 928.927 67.9807 925.768 74.3388C922.586 80.7705 918.357 89.2589 916.333 93.2658C914.309 97.2727 911.401 103.049 909.942 106.089C883.32 159.739 844.109 236.023 821.663 277.807C799.223 319.706 764.095 371.007 735.527 403.781C720.677 420.814 705.144 432.362 692.288 435.875C681.137 438.95 668.964 437.415 655.483 431.169C640.294 424.187 629.462 415.927 610.278 396.505C606.527 392.728 599.723 386 595.258 381.584C590.717 377.161 582.392 368.806 576.695 362.981C549.089 334.741 535.718 323.125 517.375 311.553C504.281 303.223 491.341 297.143 477.207 292.689C456.636 286.202 433.62 283.946 412.364 286.333C397.169 288.064 379.48 292.998 365.537 299.36C354.524 304.342 350.269 306.728 340.472 313.307C325.997 323.026 315.341 332.476 303.94 345.604C287.337 364.813 275.046 386.188 265.163 413.065L261.822 422.133L257.052 419.923C247.021 415.302 233.254 412.779 222.354 413.566C203.717 414.96 185.806 422.221 168.866 435.184C158.716 442.941 151.064 450.374 141.141 461.979C128.64 476.552 114.208 497.187 98.8823 522.128C74.0957 562.661 60.8647 578.488 40.8045 592.017C30.4161 598.992 24.6798 601.726 10.7836 606.35C7.55828 607.398 4.01566 608.717 2.89997 609.29L0.887697 610.229L21.3111 640.645L41.7345 671.061L46.5897 669.036Z" fill="#331400"/>
</svg>
